<?xml version="1.0" standalone="no"?><!DOCTYPE svg PUBLIC "-//W3C//DTD SVG 1.1//EN" "http://www.w3.org/Graphics/SVG/1.1/DTD/svg11.dtd"><svg t="1723256586056" class="icon" viewBox="0 0 1059 1024" version="1.1" xmlns="http://www.w3.org/2000/svg" p-id="980" xmlns:xlink="http://www.w3.org/1999/xlink" width="49.640625" height="48"><path d="M302.59784 600.254783c27.58181 48.124106 69.95127 144.321703 69.95127 144.321704l109.922312-101.679696H805.572624V367.366814H305.479057c-18.977095 0-35.08076 13.666312-36.533049 32.585003-3.593734 46.823665-3.944152 134.704669 33.651832 200.302966z" fill="#FFAE6C" p-id="981"></path><path d="M132.718966 246.005293l-1.265399-19.428745 1.265399 19.428745zM79.428137 656.021901l15.714312 11.489825 6.724137-9.192639-4.718966-10.364593-17.71559 8.067407z m69.95127 108.240304l-13.658525-13.868775-17.85965 17.583209 21.453384 12.953794 10.064791-16.668228z m319.772228-154.160669v-19.46768h-7.713095l-5.622266 5.279634 13.335361 14.188046z m-146.56438 137.761095l-13.331468-14.184152-18.136091 17.049795 20.916076 13.494996 10.551483-16.360639z m639.544456-131.20438l-13.880456 13.650738 13.880456-13.650738zM862.718053 0v154.164563h38.935361V0h-38.935361z m38.935361 154.164563c0-26.036076-4.979833-48.256487-18.136091-65.691742-13.25749-17.575422-32.623939-27.387133-55.249277-33.133992-22.39562-5.680669-49.907346-7.857156-81.857704-8.737095-32.051589-0.879939-70.251072-0.467224-114.045566-0.467224v38.935361c44.475863 0 81.639665-0.408821 112.978737 0.45165 31.444198 0.868259 55.35051 2.994129 73.346434 7.561247 17.758418 4.504821 27.749232 10.886327 33.745277 18.836928 6.105065 8.090768 10.282829 20.713612 10.282829 42.244867h38.935361z m-365.88727 48.988471h176.540715v-38.935361h-176.540715v38.935361z m69.95127 66.026586H222.655757v38.935361h383.061657v-38.935361z m-383.061657 19.46768c15.169217-12.206236 15.165323-12.210129 15.157536-12.214022l-0.007787-0.015575-0.023362-0.027254a14.223087 14.223087 0 0 0-0.21025-0.256974 71.134905 71.134905 0 0 0-2.079149-2.413992c-1.354951-1.518479-3.286144-3.597627-5.746859-6.042768a161.893232 161.893232 0 0 0-21.091285-17.598783c-17.879118-12.494357-44.728943-25.615574-77.201034-23.497491l2.530798 38.853597c20.378768-1.331589 38.499285 6.868198 52.375848 16.559209a122.942297 122.942297 0 0 1 15.967392 13.331468 97.287787 97.287787 0 0 1 5.030448 5.37308l0.167422 0.19857 0.007787 0.007787a1.658646 1.658646 0 0 0-0.015574-0.015574l-0.01168-0.015574-0.007787-0.011681c-0.003894-0.003894-0.007787-0.007787 15.157536-12.214023zM131.453567 226.580441c-30.537004 1.989597-55.1753 21.686996-73.01159 48.369399-17.910266 26.806996-30.649916 62.888395-37.455817 103.692654-13.639057 81.73311-4.224487 186.714525 40.722494 285.439027l35.431179-16.13092c-41.660837-91.517567-50.140958-188.637932-37.751727-262.899346 6.206297-37.187163 17.466403-67.576213 31.428624-88.465034 14.043985-21.013414 29.162586-30.241095 43.171529-31.152183l-2.534692-38.85749zM63.709932 644.528183l-59.960457 82.001764 31.432517 22.97965 59.960457-82.001764-31.432517-22.97965z m144.317809-368.725658C163.33384 326.698829 139.369125 377.061719 139.201703 444.174601c-0.159635 65.341323 22.286601 145.069262 65.325749 255.018829l36.256609-14.19194c-42.883407-109.560213-62.787163-183.334935-62.646996-240.729551 0.140167-55.619163 19.144517-97.229384 59.146707-142.775969l-29.256031-25.697339z m28.138586 430.313612l156.555194-150.886205-27.021141-28.033461-156.555194 150.882312 27.021141 28.037354z m-27.169095-27.889399l-73.280243 72.162798 27.317049 27.741445 73.280243-72.162798-27.317049-27.741445zM139.310722 780.92654c73.533323 44.394099 109.824973 93.810859 128.062297 136.480122 18.354129 42.934023 19.086114 80.498859 19.086114 102.699802h38.935361c0-23.719422-0.712517-67.689125-22.216517-118.005293-21.620806-50.577034-63.6087-106.126114-143.74546-154.507194l-20.121795 33.332563z m519.697521-190.296578h-189.864395v38.935361h189.864395v-38.935361z m-203.199756 5.279635l-146.560487 137.764989 26.666829 28.368304 146.560487-137.761095-26.666829-28.372198z m-133.229019 151.949141a3106.74981 3106.74981 0 0 1-10.563164 16.352851l-0.003893-0.003893-0.007787-0.003894 0.007787 0.003894 0.120699 0.081764 0.634647 0.420502c0.58403 0.397141 1.499011 1.024 2.68654 1.868897a230.092411 230.092411 0 0 1 10.076471 7.619651 266.753947 266.753947 0 0 1 30.922464 28.964015c22.816122 25.175605 43.257186 58.371894 43.257186 95.582418h38.935361c0-51.355741-27.854357-93.604502-53.341444-121.727513a305.98911 305.98911 0 0 0-35.485689-33.254692 266.150449 266.150449 0 0 0-11.809095-8.920092 168.90549 168.90549 0 0 0-4.42695-3.048638l-0.295909-0.194677a6.062236 6.062236 0 0 0-0.093445-0.058403l-0.031148-0.023361a0.038935 0.038935 0 0 0-0.015574-0.007788c-0.003894-0.003894-0.011681-0.007787-10.567057 16.348959zM1009.282433 0c0 17.15492 2.783878 55.443954 5.443164 101.076198 2.702114 46.33308 5.380867 101.636867 5.380867 154.768061 0 53.43489-2.725475 103.412319-10.399635 139.563802-3.870175 18.225643-8.674798 31.280669-13.880456 39.328608-4.964259 7.67416-8.44508 8.289338-10.380168 8.289339v38.935361c19.712973 0 33.827042-11.789627 43.070297-26.075012 9.001856-13.915498 15.025156-32.38254 19.276897-52.391422C1056.351392 363.181262 1059.041825 309.835924 1059.041825 255.848152c0-54.291468-2.733262-110.506342-5.447057-157.041886C1050.842038 51.569886 1048.217795 15.644228 1048.217795 0h-38.935362z m-23.836228 443.026008c-6.564502 0-15.418403-3.944152-27.005566-15.071879-11.256213-10.816243-22.383939-25.782996-33.550601-42.069658-10.617673-15.496274-21.858312-33.122312-31.755681-45.974874-5.034342-6.537247-10.532015-12.946008-16.368425-17.867437-5.443163-4.586586-13.892137-10.220532-24.556533-10.220533v38.935362c-3.173232 0-3.609308-1.534053-0.541201 1.051254 2.670966 2.258251 6.179042 6.097278 10.617673 11.859711 9.048578 11.746798 18.626677 26.919909 30.490281 44.230571 11.31851 16.512487 24.342388 34.344882 38.690069 48.131893 14.020624 13.471635 32.230692 25.930951 53.979984 25.930951v-38.935361z m-133.236806-131.204381c-11.762373 0-20.48 6.942175-25.849186 12.739651-5.727392 6.179042-10.664395 14.250342-14.958966 22.987437-8.670905 17.637719-16.51638 41.73092-22.905673 69.406175-12.817521 55.525719-20.503361 128.782601-15.667589 200.999908l38.84581-2.596988c-4.559331-68.15635 2.744943-137.581992 14.760395-189.646358 6.027194-26.121734 13.055027-47.045597 19.90765-60.984456 3.465247-7.0473 6.447696-11.404167 8.57746-13.705247 2.484076-2.678753 1.553521-0.26476-2.709901-0.26476v-38.935362z m-79.404775 305.798327l19.989414 403.448213 38.884745-1.923407-19.985521-403.452106-38.888638 1.9273z m19.444319-0.965597l5.941536 18.541019h-0.003893 0.003893l0.042829-0.01168 0.218038-0.070084 0.969491-0.299802c0.872152-0.268654 2.192061-0.665795 3.901323-1.164167 3.426312-0.996745 8.410038-2.394525 14.53457-3.948046 12.295787-3.122616 28.975696-6.833156 46.734114-9.293871 17.906373-2.476289 36.10476-3.570373 51.710053-1.868897 16.041369 1.744304 26.390388 6.116745 31.946464 11.766266l27.764806-27.297582c-14.803224-15.056304-35.867255-21.040669-55.498464-23.17822-20.063392-2.18038-41.789323-0.685262-61.26479 2.012958-19.619529 2.717688-37.775087 6.770859-50.970282 10.1193a481.708289 481.708289 0 0 0-20.277536 5.62616l-1.206996 0.377673a11.466464 11.466464 0 0 0-0.467224 0.147954h-0.011681c-0.003894 0.003894-0.007787 0.003894 5.933749 18.541019z m155.998418 13.650738c9.332806 9.492441 11.007027 17.435255 10.095939 25.307985-1.105764 9.511909-6.268593 20.725293-15.025156 35.100228-7.654692 12.572228-20.024456 30.385156-28.656425 45.780198-9.204319 16.422935-17.548167 35.45454-18.607209 56.300532l38.884745 1.974023c0.607392-11.953156 5.552183-24.723954 13.685779-39.235164 8.70984-15.539103 17.731163-27.795954 27.947803-44.565414 9.110875-14.962859 18.295726-32.359179 20.444958-50.865156 2.340015-20.141262-3.827346-39.620624-21.005628-57.094814l-27.764806 27.297582z m-49.40508-351.710905c19.981627 0 29.968548 8.118023 35.664791 16.274981 6.509992 9.325019 8.153065 20.024456 8.153065 23.29892l38.935361-0.007787c-0.003894-9.846753-3.356228-28.664213-15.165323-45.577734-12.622844-18.081582-34.274798-32.923741-67.587894-32.923741v38.935361z" fill="#000000" p-id="982"></path></svg>